<svg width="200" height="200" viewBox="0 0 200 200" fill="none" xmlns="http://www.w3.org/2000/svg">
  <!-- SVG version of the Niramay logo for better scalability -->
  <g id="niramay-logo">
    <!-- Circular arrows representing recycling -->
    <path d="M100 20C144.183 20 180 55.8172 180 100C180 144.183 144.183 180 100 180C55.8172 180 20 144.183 20 100C20 55.8172 55.8172 20 100 20Z" fill="none" stroke="#2D7D32" stroke-width="8"/>
    
    <!-- Leaves at the top -->
    <path d="M85 45C85 35 95 25 105 35C115 25 125 35 125 45C125 55 115 65 105 55C95 65 85 55 85 45Z" fill="#4CAF50"/>
    <path d="M95 35C95 25 105 15 115 25C125 15 135 25 135 35C135 45 125 55 115 45C105 55 95 45 95 35Z" fill="#388E3C"/>
    
    <!-- Waste bin in center -->
    <rect x="80" y="90" width="40" height="50" rx="5" fill="#2D7D32"/>
    <rect x="75" y="85" width="50" height="8" rx="4" fill="#2D7D32"/>
    <rect x="85" y="88" width="8" height="3" rx="1.5" fill="#2D7D32"/>
    
    <!-- Checkmark inside bin -->
    <circle cx="100" cy="115" r="15" fill="#4CAF50"/>
    <path d="M93 115L98 120L107 111" stroke="white" stroke-width="3" stroke-linecap="round" stroke-linejoin="round"/>
    
    <!-- Shield shape at bottom -->
    <path d="M100 140L85 155C85 165 90 175 100 180C110 175 115 165 115 155L100 140Z" fill="#2D7D32"/>
    
    <!-- Recycling arrows -->
    <path d="M60 80L45 95L60 110" stroke="#4CAF50" stroke-width="6" stroke-linecap="round" stroke-linejoin="round" fill="none"/>
    <path d="M140 80L155 95L140 110" stroke="#4CAF50" stroke-width="6" stroke-linecap="round" stroke-linejoin="round" fill="none"/>
    <path d="M80 160L95 175L110 160" stroke="#4CAF50" stroke-width="6" stroke-linecap="round" stroke-linejoin="round" fill="none"/>
  </g>
</svg>